<svg xmlns="http://www.w3.org/2000/svg" viewBox="0 0 512 512">
  <defs>
    <linearGradient id="bg" x1="0" y1="0" x2="1" y2="1">
      <stop offset="0" stop-color="#3B5BDB"/>
      <stop offset="1" stop-color="#7048E8"/>
    </linearGradient>
  </defs>
  <rect width="512" height="512" rx="112" fill="url(#bg)"/>
  <g fill="#fff">
    <circle cx="256" cy="124" r="20"/>
    <path d="M256 138C190 138 164 190 164 252V316L136 350H376L348 316V252C348 190 322 138 256 138Z"/>
    <path d="M222 366a34 34 0 0 0 68 0Z"/>
  </g>
  <g fill="none" stroke="#fff" stroke-width="22" stroke-linecap="round" opacity="0.9">
    <path d="M396 200a90 90 0 0 1 0 116"/>
    <path d="M116 200a90 90 0 0 0 0 116"/>
    <path d="M434 166a140 140 0 0 1 0 184" opacity="0.6"/>
    <path d="M78 166a140 140 0 0 0 0 184" opacity="0.6"/>
  </g>
</svg>
